<svg width="788" height="561" viewBox="0 0 788 561" fill="none" xmlns="http://www.w3.org/2000/svg">
<path d="M193.409 373.878C210.463 373.878 224.287 360.755 224.287 344.567C224.287 328.38 210.463 315.257 193.409 315.257C176.356 315.257 162.532 328.38 162.532 344.567C162.532 360.755 176.356 373.878 193.409 373.878Z" fill="url(#paint0_linear_1_3)"/>
<path d="M233.377 149.605C240.439 149.605 246.163 144.171 246.163 137.467C246.163 130.764 240.439 125.33 233.377 125.33C226.315 125.33 220.59 130.764 220.59 137.467C220.59 144.171 226.315 149.605 233.377 149.605Z" fill="url(#paint1_linear_1_3)"/>
<path d="M599.705 277.512C612.396 277.512 622.684 267.746 622.684 255.699C622.684 243.652 612.396 233.886 599.705 233.886C587.014 233.886 576.725 243.652 576.725 255.699C576.725 267.746 587.014 277.512 599.705 277.512Z" fill="url(#paint2_linear_1_3)"/>
<path opacity="0.8" d="M605.591 344.06C596.349 345.762 586.339 343.037 583.233 337.971C580.127 332.906 585.1 327.421 594.341 325.718C603.583 324.015 613.593 326.741 616.699 331.807C619.807 336.872 614.833 342.358 605.591 344.06Z" fill="#0C0F38"/>
<path opacity="0.8" d="M201.601 442.842C188.743 445.211 174.815 441.419 170.493 434.371C166.171 427.325 173.091 419.692 185.948 417.323C198.806 414.954 212.734 418.747 217.056 425.794C221.378 432.84 214.458 440.474 201.601 442.842Z" fill="#0C0F38"/>
<path opacity="0.8" d="M236.186 186.531C231.57 187.381 226.571 186.02 225.019 183.491C223.468 180.961 225.951 178.221 230.567 177.371C235.184 176.521 240.182 177.882 241.735 180.411C243.286 182.941 240.802 185.681 236.186 186.531Z" fill="#0C0F38"/>
<path opacity="0.8" d="M317.852 90.0729C319.661 90.0729 321.127 88.6809 321.127 86.9637C321.127 85.2466 319.661 83.8546 317.852 83.8546C316.043 83.8546 314.576 85.2466 314.576 86.9637C314.576 88.6809 316.043 90.0729 317.852 90.0729Z" fill="#D4088C"/>
<path opacity="0.8" d="M260.431 406.908C262.611 406.908 264.378 405.231 264.378 403.162C264.378 401.093 262.611 399.416 260.431 399.416C258.252 399.416 256.485 401.093 256.485 403.162C256.485 405.231 258.252 406.908 260.431 406.908Z" fill="#D4088C"/>
<path d="M237.439 386.581C237.439 387.646 236.529 388.51 235.407 388.51C234.286 388.51 233.375 387.647 233.375 386.581C233.375 385.515 234.286 384.653 235.407 384.653C236.53 384.654 237.439 385.517 237.439 386.581Z" fill="#6EE8FC"/>
<path d="M582.308 315.389C582.308 316.49 581.368 317.381 580.21 317.381C579.05 317.381 578.111 316.489 578.111 315.389C578.111 314.288 579.051 313.397 580.21 313.397C581.368 313.396 582.308 314.288 582.308 315.389Z" fill="#6EE8FC"/>
<path d="M190.819 183.641C192.452 183.641 193.776 182.385 193.776 180.835C193.776 179.285 192.452 178.029 190.819 178.029C189.187 178.029 187.863 179.285 187.863 180.835C187.863 182.385 189.187 183.641 190.819 183.641Z" fill="#6EE8FC"/>
<path d="M414.686 78.5226C414.686 80.0722 413.362 81.3288 411.73 81.3288C410.098 81.3288 408.774 80.0722 408.774 78.5226C408.774 76.9729 410.098 75.7163 411.73 75.7163C413.362 75.7163 414.686 76.9729 414.686 78.5226Z" fill="#6EE8FC"/>
<path d="M205.809 174.617C205.809 175.476 205.076 176.171 204.171 176.171C203.266 176.171 202.533 175.476 202.533 174.617C202.533 173.758 203.266 173.062 204.171 173.062C205.074 173.062 205.809 173.759 205.809 174.617Z" fill="#6EE8FC"/>
<path d="M487.558 88.5433C487.558 89.5568 486.692 90.3796 485.623 90.3796C484.556 90.3796 483.689 89.5581 483.689 88.5433C483.689 87.5285 484.554 86.7069 485.623 86.7069C486.691 86.7069 487.558 87.5285 487.558 88.5433Z" fill="#D4088C"/>
<path d="M203.56 272.836L202.852 270.436L208.476 268.943L206.903 263.606L209.432 262.934L211.712 270.673L203.56 272.836Z" fill="#6EE1F8"/>
<path d="M198.601 281.201L197.893 278.801L203.514 277.309L201.942 271.972L204.472 271.3L206.752 279.038L198.601 281.201Z" fill="#6EE1F8"/>
<path d="M203.869 278.509L201.587 270.771L209.741 268.608L210.449 271.009L204.825 272.5L206.398 277.837L203.869 278.509Z" fill="#6EE1F8"/>
<path d="M397.834 94.4774C394.386 94.4774 391.581 91.8158 391.581 88.5433C391.581 85.2708 394.386 82.6079 397.834 82.6079C401.281 82.6079 404.085 85.2708 404.085 88.5433C404.085 91.8158 401.281 94.4774 397.834 94.4774ZM397.834 85.1012C395.835 85.1012 394.207 86.6446 394.207 88.5433C394.207 90.4394 395.833 91.9841 397.834 91.9841C399.831 91.9841 401.458 90.4407 401.458 88.5433C401.458 86.6458 399.833 85.1012 397.834 85.1012Z" fill="#6EE1F8"/>
<path d="M534.961 391.384L527.867 384.649L534.961 377.915L542.056 384.649L534.961 391.384ZM531.581 384.649L534.961 387.858L538.342 384.649L534.961 381.44L531.581 384.649Z" fill="#6EE1F8"/>
<path d="M551.831 145.563L549.974 147.327L557.57 154.535L559.427 152.771L551.831 145.563Z" fill="#D4088C"/>
<path d="M557.587 145.592L549.992 152.802L551.849 154.565L559.444 147.355L557.587 145.592Z" fill="#D4088C"/>
<path d="M167.275 232.704C167.275 233.718 166.41 234.54 165.341 234.54C164.273 234.54 163.406 233.719 163.406 232.704C163.406 231.689 164.272 230.868 165.341 230.868C166.41 230.868 167.275 231.69 167.275 232.704Z" fill="#D4088C"/>
<path opacity="0.8" d="M251.116 331.269L405.261 415.747C406.948 416.672 409.5 416.772 410.962 415.972L502.945 365.56C504.405 364.76 504.223 363.361 502.535 362.436L348.391 277.958C346.703 277.033 344.151 276.933 342.689 277.734L250.706 328.145C249.244 328.945 249.428 330.344 251.116 331.269Z" fill="#0C0F38"/>
<path d="M348.113 246.685L367.599 136.95L366.033 136.324L368.387 135.043L368.383 135.056C368.84 134.767 369.487 134.785 370.197 135.175L525.926 220.52C527.205 221.221 528.173 223.019 527.948 224.275L508.307 334.883C508.205 335.459 507.904 335.842 507.486 336.009L507.489 336.01L505.185 337.273L504.79 335.231L504.921 335.269L350.135 250.44C348.857 249.74 347.889 247.943 348.113 246.685Z" fill="url(#paint3_linear_1_3)"/>
<path d="M525.056 223.521L527.616 222.446C527.904 223.069 528.044 223.723 527.946 224.275L508.305 334.883C508.202 335.459 507.901 335.842 507.484 336.009L507.486 336.01L505.183 337.273L504.788 335.231L504.919 335.269L497.086 330.976L525.056 223.521Z" fill="#3A9BD5"/>
<path d="M347.692 251.772L503.42 337.117C504.622 337.777 505.652 337.395 505.863 336.214L525.504 225.606C525.729 224.349 524.761 222.551 523.482 221.851L367.753 136.505C366.551 135.846 365.522 136.227 365.31 137.408L345.669 248.016C345.445 249.273 346.413 251.07 347.692 251.772Z" fill="url(#paint4_linear_1_3)"/>
<path d="M347.692 251.772L503.42 337.117C504.622 337.777 505.652 337.395 505.863 336.214L525.504 225.606C525.729 224.349 524.761 222.551 523.482 221.851L367.753 136.505C366.551 135.846 365.522 136.227 365.31 137.408L345.669 248.016C345.445 249.273 346.413 251.07 347.692 251.772Z" fill="url(#paint5_linear_1_3)"/>
<path d="M368.022 142.595L521.84 226.898L503.225 331.069L349.51 246.82L368.022 142.595Z" fill="url(#paint6_linear_1_3)"/>
<path d="M249.801 304.138L258.3 308.351L343.518 261.648C344.944 260.866 347.434 260.965 349.08 261.867L496.057 342.417C497.463 341.67 503.876 338.743 503.876 338.743L500.765 346.437C500.765 346.437 500.754 346.43 500.753 346.427C500.624 346.769 500.347 347.089 499.884 347.344L410.132 396.531C408.705 397.313 406.215 397.214 404.57 396.313L254.165 313.885C253.489 313.514 253.075 313.065 252.903 312.612L252.892 312.619L249.801 304.138Z" fill="url(#paint7_linear_1_3)"/>
<path d="M251.116 305.463L405.261 389.941C406.948 390.866 409.5 390.966 410.962 390.166L502.945 339.754C504.405 338.954 504.223 337.555 502.535 336.63L348.391 252.152C346.703 251.227 344.151 251.127 342.689 251.928L250.706 302.339C249.244 303.141 249.428 304.539 251.116 305.463Z" fill="url(#paint8_radial_1_3)"/>
<path d="M251.116 304.033L405.261 388.511C406.948 389.436 409.5 389.536 410.962 388.736L502.945 338.324C503.293 338.133 503.544 337.909 503.707 337.665C504.16 338.415 503.922 339.218 502.945 339.754L410.962 390.166C409.5 390.966 406.948 390.866 405.261 389.941L251.116 305.463C249.83 304.759 249.42 303.779 249.944 302.999C250.168 303.369 250.558 303.728 251.116 304.033Z" fill="#6EE8FC"/>
<g opacity="0.11">
<mask id="mask0_1_3" style="mask-type:luminance" maskUnits="userSpaceOnUse" x="351" y="143" width="171" height="189">
<path d="M369.789 143.565L521.84 226.898L503.225 331.069L351.275 247.79L369.789 143.565Z" fill="white"/>
</mask>
<g mask="url(#mask0_1_3)">
<path d="M348.61 252.067L520.215 346.115C522.093 347.144 524.935 347.255 526.561 346.364L628.965 290.243C630.592 289.351 630.387 287.794 628.509 286.764L456.903 192.717C455.025 191.687 452.183 191.577 450.557 192.468L348.154 248.589C346.527 249.482 346.731 251.039 348.61 252.067Z" fill="url(#paint9_linear_1_3)"/>
<path d="M386.196 249.696L510.43 317.782L505.509 320.478L381.275 252.394L386.196 249.696Z" fill="url(#paint10_radial_1_3)"/>
<path d="M399.286 242.523L517.368 307.236L512.447 309.933L394.365 245.219L399.286 242.523Z" fill="url(#paint11_radial_1_3)"/>
<path d="M526.186 312.068L537.214 318.113L532.293 320.81L521.263 314.766L526.186 312.068Z" fill="#6EE1F8"/>
<path d="M516.445 321.078L524.124 325.286L519.203 327.983L511.524 323.774L516.445 321.078Z" fill="#6EE1F8"/>
<path d="M407.488 238.027L545.416 313.618L540.494 316.314L402.567 240.725L407.488 238.027Z" fill="url(#paint12_radial_1_3)"/>
<path d="M415.691 233.533L553.617 309.122L548.696 311.82L410.769 236.23L415.691 233.533Z" fill="url(#paint13_radial_1_3)"/>
<path d="M423.893 229.038L561.819 304.628L556.898 307.325L418.97 231.734L423.893 229.038Z" fill="url(#paint14_radial_1_3)"/>
</g>
</g>
<path d="M344.667 271.179L455.934 332.157L460.881 329.447L349.615 268.467L344.667 271.179Z" fill="#6EE1F8"/>
<path d="M332.537 277.826L436.903 335.022L441.85 332.31L337.485 275.114L332.537 277.826Z" fill="#6EE1F8"/>
<path d="M324.638 282.154L447.516 349.497L452.463 346.787L329.585 279.443L324.638 282.154Z" fill="#6EE1F8"/>
<path d="M316.738 286.484L439.616 353.826L444.563 351.115L321.685 283.772L316.738 286.484Z" fill="#6EE1F8"/>
<path d="M308.838 290.814L431.716 358.156L436.664 355.445L313.786 288.102L308.838 290.814Z" fill="#6EE1F8"/>
<path d="M462.657 335.842L467.604 338.554L472.552 335.842L467.604 333.131L462.657 335.842Z" fill="#6EE1F8"/>
<path d="M445.207 339.573L455.476 345.201L460.423 342.489L450.154 336.862L445.207 339.573Z" fill="#6EE1F8"/>
<g opacity="0.5">
<path d="M380.734 173.722L390.902 179.298L391.2 177.623L381.032 172.045L380.734 173.722Z" fill="white"/>
<path d="M392.537 180.188L398.078 183.228L398.376 181.551L392.835 178.513L392.537 180.188Z" fill="white"/>
<path d="M406.699 187.949L410.707 190.147L411.005 188.471L406.997 186.272L406.699 187.949Z" fill="white"/>
<path d="M403.775 186.345L405.145 187.096L405.443 185.42L404.073 184.669L403.775 186.345Z" fill="white"/>
<path d="M399.734 184.129L402.221 185.493L402.52 183.817L400.031 182.452L399.734 184.129Z" fill="white"/>
<path d="M388.781 186.537L392.789 188.737L393.087 187.061L389.079 184.862L388.781 186.537Z" fill="white"/>
<path d="M379.373 181.379L387.227 185.686L387.525 184.011L379.672 179.702L379.373 181.379Z" fill="white"/>
<path d="M390.637 208.537L398.492 212.846L398.79 211.169L390.935 206.862L390.637 208.537Z" fill="white"/>
<path d="M386.595 206.322L389.084 207.686L389.381 206.01L386.894 204.645L386.595 206.322Z" fill="white"/>
<path d="M391.946 200.87L399.801 205.178L400.099 203.502L392.244 199.195L391.946 200.87Z" fill="white"/>
<path d="M387.905 198.654L390.394 200.019L390.69 198.343L388.203 196.978L387.905 198.654Z" fill="white"/>
<path d="M384.845 241.625L370.049 233.511L369.751 235.187L384.547 243.302L384.845 241.625Z" fill="white"/>
<path d="M390.06 244.485L386.398 242.478L386.1 244.153L389.762 246.162L390.06 244.485Z" fill="white"/>
<path d="M416.059 246.111L401.263 237.996L400.965 239.672L415.761 247.786L416.059 246.111Z" fill="white"/>
<path d="M421.273 248.969L417.612 246.962L417.314 248.638L420.975 250.646L421.273 248.969Z" fill="white"/>
<path d="M374.739 231.881L370.729 229.683L370.432 231.359L374.44 233.557L374.739 231.881Z" fill="white"/>
<path d="M399.126 236.843L395.118 234.645L394.819 236.321L398.828 238.52L399.126 236.843Z" fill="white"/>
<path d="M384.146 237.041L376.292 232.733L375.994 234.409L383.848 238.717L384.146 237.041Z" fill="white"/>
<path d="M388.187 239.257L385.7 237.893L385.402 239.568L387.889 240.933L388.187 239.257Z" fill="white"/>
<path d="M397.667 244.448L389.813 240.14L389.515 241.816L397.369 246.123L397.667 244.448Z" fill="white"/>
<path d="M401.708 246.664L399.221 245.299L398.922 246.975L401.41 248.34L401.708 246.664Z" fill="white"/>
<path d="M398.446 240.674L394.436 238.475L394.139 240.15L398.147 242.35L398.446 240.674Z" fill="white"/>
<path d="M407.853 245.833L399.999 241.525L399.701 243.201L407.555 247.509L407.853 245.833Z" fill="white"/>
<path d="M411.894 248.049L409.407 246.685L409.109 248.361L411.596 249.725L411.894 248.049Z" fill="white"/>
<path d="M379.612 230.353L371.409 225.855L371.112 227.53L379.314 232.028L379.612 230.353Z" fill="white"/>
<path d="M387.097 234.458L381.166 231.204L380.868 232.881L386.799 236.134L387.097 234.458Z" fill="white"/>
<path d="M392.659 237.509L388.651 235.31L388.353 236.986L392.361 239.184L392.659 237.509Z" fill="white"/>
<path d="M431.536 254.582L423.333 250.084L423.035 251.759L431.238 256.257L431.536 254.582Z" fill="white"/>
<path d="M439.021 258.687L433.089 255.433L432.791 257.11L438.723 260.363L439.021 258.687Z" fill="white"/>
<path d="M444.583 261.738L440.573 259.539L440.277 261.214L444.285 263.413L444.583 261.738Z" fill="white"/>
<path d="M428.324 203.998L436.527 208.496L436.825 206.821L428.622 202.322L428.324 203.998Z" fill="white"/>
<path d="M420.839 199.893L426.772 203.146L427.07 201.47L421.137 198.216L420.839 199.893Z" fill="white"/>
<path d="M415.277 196.842L419.287 199.04L419.584 197.365L415.575 195.167L415.277 196.842Z" fill="white"/>
<path d="M425.601 198.287L433.803 202.785L434.101 201.11L425.9 196.612L425.601 198.287Z" fill="white"/>
<path d="M418.117 194.182L424.048 197.435L424.346 195.759L418.415 192.507L418.117 194.182Z" fill="white"/>
<path d="M412.555 191.131L416.563 193.331L416.861 191.655L412.852 189.456L412.555 191.131Z" fill="white"/>
<path d="M392.488 205.372L395.258 206.892L395.556 205.215L392.785 203.697L392.488 205.372Z" fill="white"/>
<path d="M387.273 202.512L390.933 204.519L391.231 202.844L387.571 200.837L387.273 202.512Z" fill="white"/>
<path d="M380.345 226.547L372.144 222.049L371.845 223.724L380.047 228.224L380.345 226.547Z" fill="white"/>
<path d="M387.83 230.652L381.899 227.399L381.601 229.075L387.533 232.328L387.83 230.652Z" fill="white"/>
<path d="M393.393 233.703L389.384 231.504L389.085 233.18L393.095 235.378L393.393 233.703Z" fill="white"/>
<path d="M375.594 219.74L372.824 218.22L372.526 219.897L375.297 221.415L375.594 219.74Z" fill="white"/>
<path d="M380.809 222.6L377.147 220.591L376.85 222.268L380.511 224.275L380.809 222.6Z" fill="white"/>
<path d="M388.261 226.686L382.363 223.451L382.064 225.128L387.964 228.363L388.261 226.686Z" fill="white"/>
<path d="M396.255 194.817L399.025 196.335L399.323 194.66L396.552 193.14L396.255 194.817Z" fill="white"/>
<path d="M391.04 191.955L394.701 193.964L394.998 192.288L391.338 190.28L391.04 191.955Z" fill="white"/>
<path d="M383.588 187.869L389.486 191.104L389.784 189.429L383.886 186.193L383.588 187.869Z" fill="white"/>
<path d="M400.475 201.03L406.373 204.265L406.671 202.59L400.773 199.354L400.475 201.03Z" fill="white"/>
<path d="M390.827 196.04L398.778 200.4L399.076 198.725L391.125 194.364L390.827 196.04Z" fill="white"/>
<path d="M386.786 193.823L389.273 195.188L389.571 193.511L387.084 192.147L386.786 193.823Z" fill="white"/>
<path d="M382.908 191.696L385.395 193.061L385.693 191.385L383.206 190.021L382.908 191.696Z" fill="white"/>
<path d="M383.443 213.328L391.297 217.636L391.595 215.96L383.741 211.653L383.443 213.328Z" fill="white"/>
<path d="M379.402 211.112L381.89 212.477L382.188 210.801L379.7 209.436L379.402 211.112Z" fill="white"/>
<path d="M383.984 217.83L386.754 219.35L387.052 217.673L384.283 216.155L383.984 217.83Z" fill="white"/>
<path d="M393.764 214.761L396.533 216.28L396.831 214.605L394.062 213.085L393.764 214.761Z" fill="white"/>
<path d="M397.713 216.924L404.359 220.568L404.658 218.892L398.011 215.248L397.713 216.924Z" fill="white"/>
<path d="M405.539 221.212L409.493 223.379L409.791 221.703L405.837 219.536L405.539 221.212Z" fill="white"/>
<path d="M378.771 214.97L382.431 216.977L382.729 215.302L379.067 213.295L378.771 214.97Z" fill="white"/>
<path d="M378.425 218.903L381.196 220.423L381.494 218.746L378.723 217.228L378.425 218.903Z" fill="white"/>
<path d="M373.211 216.044L376.871 218.051L377.17 216.375L373.509 214.368L373.211 216.044Z" fill="white"/>
<path d="M389.743 212.559L392.231 213.923L392.529 212.247L390.042 210.884L389.743 212.559Z" fill="white"/>
<path d="M385.865 210.432L388.354 211.796L388.651 210.121L386.163 208.757L385.865 210.432Z" fill="white"/>
<path d="M404.969 191.19L413.454 195.844L413.753 194.167L405.267 189.513L404.969 191.19Z" fill="white"/>
<path d="M395.464 185.978L403.415 190.337L403.713 188.662L395.763 184.301L395.464 185.978Z" fill="white"/>
<path d="M391.423 183.761L393.911 185.125L394.209 183.449L391.721 182.084L391.423 183.761Z" fill="white"/>
<path d="M387.545 181.634L390.034 182.998L390.331 181.323L387.843 179.958L387.545 181.634Z" fill="white"/>
<path d="M385.425 180.471L380.058 177.528L380.356 175.851L385.723 178.796L385.425 180.471Z" fill="white"/>
</g>
<defs>
<linearGradient id="paint0_linear_1_3" x1="215.243" y1="323.841" x2="173.849" y2="367.45" gradientUnits="userSpaceOnUse">
<stop stop-color="#D4088C"/>
<stop offset="0.045" stop-color="#CC088C"/>
<stop offset="0.4621" stop-color="#85078A"/>
<stop offset="0.7624" stop-color="#590689"/>
<stop offset="0.914" stop-color="#480689"/>
</linearGradient>
<linearGradient id="paint1_linear_1_3" x1="246.164" y1="137.467" x2="220.59" y2="137.467" gradientUnits="userSpaceOnUse">
<stop stop-color="#6EE8FC"/>
<stop offset="0.1572" stop-color="#6AE2FB"/>
<stop offset="0.3681" stop-color="#5ED1F7"/>
<stop offset="0.6094" stop-color="#4BB5F1"/>
<stop offset="0.8716" stop-color="#308EE8"/>
<stop offset="0.9624" stop-color="#267FE5"/>
</linearGradient>
<linearGradient id="paint2_linear_1_3" x1="576.424" y1="244.717" x2="626.814" y2="271.096" gradientUnits="userSpaceOnUse">
<stop stop-color="#6EE8FC"/>
<stop offset="0.1572" stop-color="#6AE2FB"/>
<stop offset="0.3681" stop-color="#5ED1F7"/>
<stop offset="0.6094" stop-color="#4BB5F1"/>
<stop offset="0.8716" stop-color="#308EE8"/>
<stop offset="0.9624" stop-color="#267FE5"/>
</linearGradient>
<linearGradient id="paint3_linear_1_3" x1="527.979" y1="236.066" x2="348.081" y2="236.066" gradientUnits="userSpaceOnUse">
<stop stop-color="#7BDAFF"/>
<stop offset="1" stop-color="#59BDEF"/>
</linearGradient>
<linearGradient id="paint4_linear_1_3" x1="525.536" y1="236.811" x2="345.638" y2="236.811" gradientUnits="userSpaceOnUse">
<stop stop-color="#2573BA"/>
<stop offset="1" stop-color="#0063AD"/>
</linearGradient>
<linearGradient id="paint5_linear_1_3" x1="525.536" y1="236.811" x2="345.638" y2="236.811" gradientUnits="userSpaceOnUse">
<stop stop-color="#2C75E4"/>
<stop offset="0.0448" stop-color="#3461D5"/>
<stop offset="0.1323" stop-color="#4140BB"/>
<stop offset="0.2225" stop-color="#4B27A7"/>
<stop offset="0.3154" stop-color="#521499"/>
<stop offset="0.4127" stop-color="#570A91"/>
<stop offset="0.5215" stop-color="#58068E"/>
<stop offset="0.6592" stop-color="#5B078F"/>
<stop offset="0.7607" stop-color="#640A92"/>
<stop offset="0.8506" stop-color="#740F98"/>
<stop offset="0.9332" stop-color="#8B17A0"/>
<stop offset="1" stop-color="#A31FA9"/>
</linearGradient>
<linearGradient id="paint6_linear_1_3" x1="521.84" y1="236.832" x2="349.509" y2="236.832" gradientUnits="userSpaceOnUse">
<stop stop-color="#7BDAFF"/>
<stop offset="1" stop-color="#59BDEF"/>
</linearGradient>
<linearGradient id="paint7_linear_1_3" x1="503.877" y1="329.089" x2="249.801" y2="329.089" gradientUnits="userSpaceOnUse">
<stop stop-color="#2C75E4"/>
<stop offset="0.0448" stop-color="#3461D5"/>
<stop offset="0.1323" stop-color="#4140BB"/>
<stop offset="0.2225" stop-color="#4B27A7"/>
<stop offset="0.3154" stop-color="#521499"/>
<stop offset="0.4127" stop-color="#570A91"/>
<stop offset="0.5215" stop-color="#58068E"/>
<stop offset="0.6592" stop-color="#5B078F"/>
<stop offset="0.7607" stop-color="#640A92"/>
<stop offset="0.8506" stop-color="#740F98"/>
<stop offset="0.9332" stop-color="#8B17A0"/>
<stop offset="1" stop-color="#A31FA9"/>
</linearGradient>
<radialGradient id="paint8_radial_1_3" cx="0" cy="0" r="1" gradientUnits="userSpaceOnUse" gradientTransform="translate(511.661 340.578) rotate(180) scale(269.752 256.059)">
<stop stop-color="#2979E4"/>
<stop offset="0.2449" stop-color="#4958CD"/>
<stop offset="0.5716" stop-color="#6E33B2"/>
<stop offset="0.8349" stop-color="#851BA1"/>
<stop offset="1" stop-color="#8D139B"/>
</radialGradient>
<linearGradient id="paint9_linear_1_3" x1="534.962" y1="269.417" x2="251.956" y2="269.417" gradientUnits="userSpaceOnUse">
<stop stop-color="#C0BFF6"/>
<stop offset="0.2938" stop-color="#C5C4F7"/>
<stop offset="0.6399" stop-color="#D3D2F9"/>
<stop offset="1" stop-color="#E9E9FD"/>
</linearGradient>
<radialGradient id="paint10_radial_1_3" cx="0" cy="0" r="1" gradientUnits="userSpaceOnUse" gradientTransform="translate(445.853 285.087) scale(52.7269 50.0504)">
<stop stop-color="#22215B"/>
<stop offset="0.3261" stop-color="#1E1E55"/>
<stop offset="0.7509" stop-color="#141645"/>
<stop offset="1" stop-color="#0C0F38"/>
</radialGradient>
<radialGradient id="paint11_radial_1_3" cx="0" cy="0" r="1" gradientUnits="userSpaceOnUse" gradientTransform="translate(455.867 276.228) scale(50.2156 47.6665)">
<stop stop-color="#22215B"/>
<stop offset="0.3261" stop-color="#1E1E55"/>
<stop offset="0.7509" stop-color="#141645"/>
<stop offset="1" stop-color="#0C0F38"/>
</radialGradient>
<radialGradient id="paint12_radial_1_3" cx="0" cy="0" r="1" gradientUnits="userSpaceOnUse" gradientTransform="translate(473.991 277.171) scale(58.3175 55.3572)">
<stop stop-color="#22215B"/>
<stop offset="0.3261" stop-color="#1E1E55"/>
<stop offset="0.7509" stop-color="#141645"/>
<stop offset="1" stop-color="#0C0F38"/>
</radialGradient>
<radialGradient id="paint13_radial_1_3" cx="0" cy="0" r="1" gradientUnits="userSpaceOnUse" gradientTransform="translate(482.193 272.676) scale(58.3175 55.3572)">
<stop stop-color="#22215B"/>
<stop offset="0.3261" stop-color="#1E1E55"/>
<stop offset="0.7509" stop-color="#141645"/>
<stop offset="1" stop-color="#0C0F38"/>
</radialGradient>
<radialGradient id="paint14_radial_1_3" cx="0" cy="0" r="1" gradientUnits="userSpaceOnUse" gradientTransform="translate(490.395 268.181) scale(58.3175 55.3572)">
<stop stop-color="#22215B"/>
<stop offset="0.3261" stop-color="#1E1E55"/>
<stop offset="0.7509" stop-color="#141645"/>
<stop offset="1" stop-color="#0C0F38"/>
</radialGradient>
</defs>
</svg>
