<svg width="788" height="561" viewBox="0 0 788 561" fill="none" xmlns="http://www.w3.org/2000/svg">
<g clip-path="url(#clip0_4_414)" filter="url(#filter0_d_4_414)">
<path opacity="0.8" d="M196.367 287.107L417.547 398.831C419.969 400.054 423.63 400.186 425.728 399.127L557.713 332.457C559.808 331.399 559.546 329.549 557.125 328.325L335.945 216.602C333.524 215.378 329.862 215.247 327.765 216.305L195.779 282.975C193.682 284.034 193.946 285.884 196.367 287.107Z" fill="#0C0F38"/>
<path d="M335.548 175.243L363.508 30.1162L361.259 29.2885L364.638 27.5936L364.633 27.6117C365.289 27.2292 366.216 27.2523 367.235 27.7684L590.687 140.639C592.523 141.566 593.912 143.944 593.59 145.605L565.407 291.887C565.26 292.648 564.829 293.154 564.229 293.375L564.233 293.377L560.928 295.047L560.361 292.347L560.549 292.396L338.448 180.209C336.614 179.283 335.225 176.907 335.548 175.243Z" fill="url(#paint0_linear_4_414)"/>
<path d="M589.44 144.608L593.113 143.187C593.526 144.009 593.727 144.875 593.586 145.605L565.403 291.887C565.256 292.648 564.825 293.155 564.226 293.375L564.229 293.377L560.924 295.047L560.357 292.347L560.545 292.396L549.306 286.72L589.44 144.608Z" fill="#3A9BD5"/>
<path d="M334.943 181.97L558.395 294.841C560.119 295.713 561.597 295.209 561.9 293.646L590.083 147.365C590.405 145.703 589.016 143.325 587.18 142.399L363.728 29.5275C362.004 28.6554 360.526 29.1599 360.223 30.7212L332.041 177.002C331.718 178.666 333.107 181.042 334.943 181.97Z" fill="url(#paint1_linear_4_414)"/>
<path d="M334.943 181.97L558.395 294.841C560.119 295.713 561.597 295.209 561.9 293.646L590.083 147.365C590.405 145.703 589.016 143.325 587.18 142.399L363.728 29.5275C362.004 28.6554 360.526 29.1599 360.223 30.7212L332.041 177.002C331.718 178.666 333.107 181.042 334.943 181.97Z" fill="url(#paint2_linear_4_414)"/>
<path d="M364.114 37.5817L584.825 149.074L558.114 286.841L337.551 175.421L364.114 37.5817Z" fill="url(#paint3_linear_4_414)"/>
<path d="M194.481 251.225L206.676 256.796L328.954 195.031C331 193.998 334.573 194.128 336.935 195.322L547.829 301.85C549.847 300.862 559.049 296.991 559.049 296.991L554.585 307.167C554.585 307.167 554.57 307.157 554.568 307.154C554.383 307.606 553.985 308.029 553.32 308.366L424.537 373.417C422.49 374.451 418.917 374.32 416.556 373.128L200.743 264.115C199.773 263.626 199.179 263.032 198.932 262.432L198.915 262.442L194.481 251.225Z" fill="url(#paint4_linear_4_414)"/>
<path d="M196.367 252.978L417.547 364.702C419.969 365.925 423.63 366.057 425.728 364.998L557.713 298.328C559.808 297.27 559.546 295.42 557.125 294.197L335.945 182.473C333.524 181.25 329.862 181.118 327.765 182.176L195.779 248.846C193.682 249.906 193.946 251.756 196.367 252.978Z" fill="url(#paint5_radial_4_414)"/>
<path d="M196.367 251.087L417.547 362.811C419.969 364.034 423.63 364.166 425.728 363.107L557.713 296.437C558.212 296.185 558.572 295.888 558.806 295.565C559.456 296.558 559.115 297.619 557.713 298.328L425.728 364.998C423.63 366.057 419.969 365.925 417.547 364.702L196.367 252.978C194.523 252.046 193.935 250.751 194.686 249.718C195.007 250.208 195.567 250.683 196.367 251.087Z" fill="#6EE8FC"/>
<g opacity="0.11">
<mask id="mask0_4_414" style="mask-type:luminance" maskUnits="userSpaceOnUse" x="340" y="38" width="245" height="249">
<path d="M366.649 38.8644L584.825 149.074L558.114 286.842L340.084 176.704L366.649 38.8644Z" fill="white"/>
</mask>
<g mask="url(#mask0_4_414)">
<path d="M336.26 182.361L582.494 306.74C585.189 308.102 589.267 308.249 591.6 307.07L738.536 232.849C740.871 231.67 740.577 229.61 737.882 228.249L491.649 103.869C488.954 102.507 484.876 102.361 482.543 103.539L335.606 177.761C333.271 178.941 333.563 181.001 336.26 182.361Z" fill="url(#paint6_linear_4_414)"/>
<path d="M390.192 179.225L568.453 269.269L561.391 272.835L383.131 182.793L390.192 179.225Z" fill="url(#paint7_radial_4_414)"/>
<path d="M408.975 169.738L578.408 255.323L571.347 258.889L401.913 173.304L408.975 169.738Z" fill="url(#paint8_radial_4_414)"/>
<path d="M591.061 261.713L606.885 269.708L599.823 273.274L583.998 265.281L591.061 261.713Z" fill="#6EE1F8"/>
<path d="M577.083 273.629L588.102 279.195L581.041 282.761L570.022 277.195L577.083 273.629Z" fill="#6EE1F8"/>
<path d="M420.743 163.793L618.653 263.762L611.592 267.329L413.682 167.361L420.743 163.793Z" fill="url(#paint9_radial_4_414)"/>
<path d="M432.514 157.849L630.422 257.817L623.361 261.385L425.451 161.415L432.514 157.849Z" fill="url(#paint10_radial_4_414)"/>
<path d="M444.282 151.904L642.19 251.873L635.129 255.44L437.219 155.47L444.282 151.904Z" fill="url(#paint11_radial_4_414)"/>
</g>
</g>
<path d="M330.603 207.636L490.258 288.281L497.357 284.696L337.702 204.05L330.603 207.636Z" fill="#6EE1F8"/>
<path d="M313.198 216.427L462.95 292.07L470.049 288.484L320.297 212.841L313.198 216.427Z" fill="#6EE1F8"/>
<path d="M301.863 222.152L478.178 311.213L485.277 307.629L308.961 218.565L301.863 222.152Z" fill="#6EE1F8"/>
<path d="M290.527 227.878L466.843 316.939L473.942 313.353L297.626 224.292L290.527 227.878Z" fill="#6EE1F8"/>
<path d="M279.192 233.604L455.508 322.665L462.607 319.079L286.291 230.018L279.192 233.604Z" fill="#6EE1F8"/>
<path d="M499.905 293.155L507.003 296.74L514.102 293.155L507.003 289.569L499.905 293.155Z" fill="#6EE1F8"/>
<path d="M474.865 298.089L489.6 305.532L496.699 301.946L481.964 294.503L474.865 298.089Z" fill="#6EE1F8"/>
<g opacity="0.5">
<path d="M382.354 78.7474L396.944 86.1222L397.372 83.9063L382.782 76.5298L382.354 78.7474Z" fill="white"/>
<path d="M399.29 87.2994L407.241 91.319L407.669 89.1015L399.718 85.0835L399.29 87.2994Z" fill="white"/>
<path d="M419.611 97.5628L425.362 100.47L425.79 98.2536L420.038 95.3452L419.611 97.5628Z" fill="white"/>
<path d="M415.416 95.4425L417.381 96.4351L417.809 94.2192L415.844 93.225L415.416 95.4425Z" fill="white"/>
<path d="M409.617 92.5111L413.186 94.3148L413.614 92.0989L410.043 90.2935L409.617 92.5111Z" fill="white"/>
<path d="M393.901 95.6964L399.652 98.6048L400.08 96.3889L394.328 93.4805L393.901 95.6964Z" fill="white"/>
<path d="M380.402 88.8739L391.671 94.5703L392.099 92.3544L380.83 86.6564L380.402 88.8739Z" fill="white"/>
<path d="M396.563 124.792L407.834 130.49L408.262 128.272L396.991 122.576L396.563 124.792Z" fill="white"/>
<path d="M390.765 121.862L394.336 123.666L394.762 121.45L391.193 119.644L390.765 121.862Z" fill="white"/>
<path d="M398.442 114.652L409.713 120.348L410.141 118.132L398.87 112.436L398.442 114.652Z" fill="white"/>
<path d="M392.644 111.721L396.215 113.526L396.641 111.31L393.071 109.505L392.644 111.721Z" fill="white"/>
<path d="M388.253 168.551L367.022 157.819L366.594 160.037L387.825 170.769L388.253 168.551Z" fill="white"/>
<path d="M395.736 172.333L390.482 169.679L390.054 171.895L395.308 174.551L395.736 172.333Z" fill="white"/>
<path d="M433.041 174.483L411.811 163.751L411.383 165.967L432.613 176.699L433.041 174.483Z" fill="white"/>
<path d="M440.523 178.264L435.271 175.609L434.843 177.825L440.095 180.481L440.523 178.264Z" fill="white"/>
<path d="M373.752 155.664L367.998 152.758L367.572 154.974L373.324 157.88L373.752 155.664Z" fill="white"/>
<path d="M408.745 162.226L402.993 159.32L402.565 161.536L408.317 164.444L408.745 162.226Z" fill="white"/>
<path d="M387.25 162.489L375.981 156.79L375.553 159.008L386.822 164.704L387.25 162.489Z" fill="white"/>
<path d="M393.049 165.418L389.48 163.615L389.052 165.831L392.621 167.636L393.049 165.418Z" fill="white"/>
<path d="M406.651 172.284L395.382 166.587L394.954 168.803L406.223 174.5L406.651 172.284Z" fill="white"/>
<path d="M412.45 175.215L408.88 173.41L408.453 175.626L412.022 177.431L412.45 175.215Z" fill="white"/>
<path d="M407.769 167.293L402.015 164.385L401.589 166.601L407.341 169.509L407.769 167.293Z" fill="white"/>
<path d="M421.267 174.115L409.998 168.419L409.57 170.635L420.839 176.333L421.267 174.115Z" fill="white"/>
<path d="M427.066 177.047L423.496 175.243L423.069 177.459L426.638 179.263L427.066 177.047Z" fill="white"/>
<path d="M380.745 153.643L368.975 147.694L368.549 149.91L380.317 155.859L380.745 153.643Z" fill="white"/>
<path d="M391.485 159.072L382.974 154.769L382.547 156.987L391.057 161.288L391.485 159.072Z" fill="white"/>
<path d="M399.465 163.107L393.714 160.198L393.286 162.416L399.038 165.323L399.465 163.107Z" fill="white"/>
<path d="M455.25 185.686L443.479 179.738L443.052 181.954L454.822 187.902L455.25 185.686Z" fill="white"/>
<path d="M465.99 191.116L457.477 186.812L457.05 189.03L465.562 193.332L465.99 191.116Z" fill="white"/>
<path d="M473.97 195.15L468.217 192.242L467.791 194.458L473.543 197.366L473.97 195.15Z" fill="white"/>
<path d="M450.64 118.789L462.411 124.737L462.839 122.521L451.068 116.571L450.64 118.789Z" fill="white"/>
<path d="M439.901 113.359L448.413 117.661L448.841 115.445L440.329 111.142L439.901 113.359Z" fill="white"/>
<path d="M431.92 109.325L437.673 112.232L438.099 110.016L432.348 107.109L431.92 109.325Z" fill="white"/>
<path d="M446.734 111.236L458.502 117.184L458.93 114.969L447.162 109.02L446.734 111.236Z" fill="white"/>
<path d="M435.994 105.806L444.505 110.108L444.932 107.892L436.422 103.591L435.994 105.806Z" fill="white"/>
<path d="M428.013 101.772L433.765 104.68L434.193 102.464L428.439 99.5561L428.013 101.772Z" fill="white"/>
<path d="M399.22 120.606L403.195 122.615L403.623 120.398L399.646 118.39L399.22 120.606Z" fill="white"/>
<path d="M391.737 116.823L396.989 119.478L397.417 117.262L392.165 114.607L391.737 116.823Z" fill="white"/>
<path d="M381.797 148.609L370.028 142.661L369.6 144.877L381.369 150.827L381.797 148.609Z" fill="white"/>
<path d="M392.536 154.039L384.026 149.737L383.598 151.953L392.11 156.255L392.536 154.039Z" fill="white"/>
<path d="M400.519 158.073L394.766 155.165L394.338 157.382L400.091 160.289L400.519 158.073Z" fill="white"/>
<path d="M374.978 139.607L371.004 137.598L370.576 139.815L374.553 141.823L374.978 139.607Z" fill="white"/>
<path d="M382.462 143.39L377.208 140.733L376.782 142.951L382.034 145.605L382.462 143.39Z" fill="white"/>
<path d="M393.154 148.794L384.691 144.516L384.263 146.733L392.728 151.012L393.154 148.794Z" fill="white"/>
<path d="M404.625 106.646L408.6 108.654L409.027 106.438L405.051 104.428L404.625 106.646Z" fill="white"/>
<path d="M397.142 102.862L402.396 105.518L402.822 103.302L397.57 100.646L397.142 102.862Z" fill="white"/>
<path d="M386.449 97.4573L394.913 101.736L395.34 99.5198L386.877 95.2414L386.449 97.4573Z" fill="white"/>
<path d="M410.68 114.863L419.143 119.142L419.571 116.926L411.108 112.647L410.68 114.863Z" fill="white"/>
<path d="M396.837 108.263L408.245 114.03L408.673 111.815L397.264 106.047L396.837 108.263Z" fill="white"/>
<path d="M391.038 105.332L394.607 107.137L395.035 104.92L391.466 103.116L391.038 105.332Z" fill="white"/>
<path d="M385.473 102.519L389.042 104.324L389.47 102.107L385.901 100.303L385.473 102.519Z" fill="white"/>
<path d="M386.242 131.128L397.511 136.824L397.939 134.608L386.67 128.912L386.242 131.128Z" fill="white"/>
<path d="M380.444 128.196L384.013 130.002L384.441 127.786L380.871 125.98L380.444 128.196Z" fill="white"/>
<path d="M387.018 137.081L390.993 139.091L391.421 136.874L387.446 134.866L387.018 137.081Z" fill="white"/>
<path d="M401.05 133.022L405.025 135.032L405.452 132.816L401.478 130.806L401.05 133.022Z" fill="white"/>
<path d="M406.717 135.883L416.254 140.702L416.682 138.486L407.145 133.667L406.717 135.883Z" fill="white"/>
<path d="M417.947 141.554L423.621 144.42L424.048 142.204L418.374 139.337L417.947 141.554Z" fill="white"/>
<path d="M379.537 133.299L384.789 135.954L385.217 133.738L379.963 131.083L379.537 133.299Z" fill="white"/>
<path d="M379.041 138.501L383.018 140.511L383.445 138.293L379.469 136.285L379.041 138.501Z" fill="white"/>
<path d="M371.56 134.719L376.812 137.373L377.24 135.157L371.988 132.503L371.56 134.719Z" fill="white"/>
<path d="M395.282 130.111L398.851 131.914L399.279 129.698L395.71 127.895L395.282 130.111Z" fill="white"/>
<path d="M389.717 127.298L393.288 129.102L393.714 126.886L390.145 125.082L389.717 127.298Z" fill="white"/>
<path d="M417.129 101.85L429.304 108.004L429.732 105.787L417.556 99.632L417.129 101.85Z" fill="white"/>
<path d="M403.491 94.9561L414.899 100.722L415.327 98.5059L403.918 92.7386L403.491 94.9561Z" fill="white"/>
<path d="M397.692 92.0247L401.261 93.8284L401.689 91.6125L398.12 89.8071L397.692 92.0247Z" fill="white"/>
<path d="M392.127 89.2119L395.698 91.0156L396.124 88.7997L392.555 86.9944L392.127 89.2119Z" fill="white"/>
<path d="M389.086 87.6737L381.384 83.781L381.812 81.5634L389.514 85.4578L389.086 87.6737Z" fill="white"/>
</g>
<path d="M143.632 493.771V423.953H152.087V486.271H184.542V493.771H143.632ZM243.451 423.953H251.905V470.181C251.905 474.953 250.78 479.215 248.53 482.965C246.303 486.692 243.155 489.635 239.087 491.794C235.019 493.931 230.246 494.999 224.769 494.999C219.292 494.999 214.519 493.931 210.451 491.794C206.382 489.635 203.223 486.692 200.973 482.965C198.746 479.215 197.632 474.953 197.632 470.181V423.953H206.087V469.499C206.087 472.908 206.837 475.942 208.337 478.601C209.837 481.237 211.973 483.317 214.746 484.84C217.542 486.34 220.882 487.09 224.769 487.09C228.655 487.09 231.996 486.34 234.792 484.84C237.587 483.317 239.723 481.237 241.201 478.601C242.701 475.942 243.451 472.908 243.451 469.499V423.953ZM277.243 423.953V493.771H268.789V423.953H277.243ZM291.877 493.771V487.635L329.513 431.453H291.468V423.953H339.604V430.09L301.968 486.271H340.013V493.771H291.877Z" fill="#6EE1F8"/>
<path d="M374.393 492.842H365.529L391.166 423.024H399.893L425.529 492.842H416.666L395.802 434.069H395.257L374.393 492.842ZM377.666 465.569H413.393V473.069H377.666V465.569ZM436.404 492.842V423.024H460.813C465.677 423.024 469.688 423.865 472.847 425.547C476.007 427.206 478.359 429.444 479.904 432.263C481.45 435.058 482.222 438.16 482.222 441.569C482.222 444.569 481.688 447.047 480.62 449.001C479.575 450.956 478.188 452.501 476.461 453.638C474.757 454.774 472.904 455.615 470.904 456.16V456.842C473.041 456.978 475.188 457.728 477.347 459.092C479.507 460.456 481.313 462.41 482.768 464.956C484.222 467.501 484.95 470.615 484.95 474.297C484.95 477.797 484.154 480.944 482.563 483.74C480.972 486.535 478.461 488.751 475.029 490.388C471.597 492.024 467.132 492.842 461.632 492.842H436.404ZM444.859 485.342H461.632C467.154 485.342 471.075 484.274 473.393 482.138C475.734 479.978 476.904 477.365 476.904 474.297C476.904 471.933 476.302 469.751 475.097 467.751C473.893 465.728 472.177 464.115 469.95 462.91C467.722 461.683 465.086 461.069 462.041 461.069H444.859V485.342ZM444.859 453.706H460.541C463.086 453.706 465.382 453.206 467.427 452.206C469.495 451.206 471.132 449.797 472.336 447.978C473.563 446.16 474.177 444.024 474.177 441.569C474.177 438.501 473.109 435.899 470.972 433.763C468.836 431.603 465.45 430.524 460.813 430.524H444.859V453.706ZM544.66 423.024H553.114V469.251C553.114 474.024 551.989 478.285 549.739 482.035C547.512 485.763 544.364 488.706 540.296 490.865C536.228 493.001 531.455 494.069 525.978 494.069C520.501 494.069 515.728 493.001 511.66 490.865C507.592 488.706 504.433 485.763 502.183 482.035C499.955 478.285 498.842 474.024 498.842 469.251V423.024H507.296V468.569C507.296 471.978 508.046 475.013 509.546 477.672C511.046 480.308 513.183 482.388 515.955 483.91C518.751 485.41 522.092 486.16 525.978 486.16C529.864 486.16 533.205 485.41 536.001 483.91C538.796 482.388 540.933 480.308 542.41 477.672C543.91 475.013 544.66 471.978 544.66 468.569V423.024ZM591.543 492.842H569.998V423.024H592.498C599.271 423.024 605.066 424.422 609.884 427.217C614.703 429.99 618.396 433.978 620.964 439.183C623.532 444.365 624.816 450.569 624.816 457.797C624.816 465.069 623.521 471.331 620.93 476.581C618.339 481.808 614.566 485.831 609.612 488.649C604.657 491.444 598.634 492.842 591.543 492.842ZM578.453 485.342H590.998C596.771 485.342 601.555 484.228 605.35 482.001C609.146 479.774 611.975 476.603 613.839 472.49C615.703 468.376 616.634 463.478 616.634 457.797C616.634 452.16 615.714 447.308 613.873 443.24C612.032 439.149 609.282 436.013 605.623 433.831C601.964 431.626 597.407 430.524 591.953 430.524H578.453V485.342ZM647.453 423.024V492.842H638.998V423.024H647.453Z" fill="#9229E4"/>
</g>
<defs>
<filter id="filter0_d_4_414" x="-4" y="0" width="796" height="569" filterUnits="userSpaceOnUse" color-interpolation-filters="sRGB">
<feFlood flood-opacity="0" result="BackgroundImageFix"/>
<feColorMatrix in="SourceAlpha" type="matrix" values="0 0 0 0 0 0 0 0 0 0 0 0 0 0 0 0 0 0 127 0" result="hardAlpha"/>
<feOffset dy="4"/>
<feGaussianBlur stdDeviation="2"/>
<feComposite in2="hardAlpha" operator="out"/>
<feColorMatrix type="matrix" values="0 0 0 0 0 0 0 0 0 0 0 0 0 0 0 0 0 0 0.25 0"/>
<feBlend mode="normal" in2="BackgroundImageFix" result="effect1_dropShadow_4_414"/>
<feBlend mode="normal" in="SourceGraphic" in2="effect1_dropShadow_4_414" result="shape"/>
</filter>
<linearGradient id="paint0_linear_4_414" x1="593.634" y1="161.198" x2="335.501" y2="161.198" gradientUnits="userSpaceOnUse">
<stop stop-color="#7BDAFF"/>
<stop offset="1" stop-color="#59BDEF"/>
</linearGradient>
<linearGradient id="paint1_linear_4_414" x1="590.128" y1="162.184" x2="331.995" y2="162.184" gradientUnits="userSpaceOnUse">
<stop stop-color="#2573BA"/>
<stop offset="1" stop-color="#0063AD"/>
</linearGradient>
<linearGradient id="paint2_linear_4_414" x1="590.128" y1="162.184" x2="331.995" y2="162.184" gradientUnits="userSpaceOnUse">
<stop stop-color="#2C75E4"/>
<stop offset="0.0448" stop-color="#3461D5"/>
<stop offset="0.1323" stop-color="#4140BB"/>
<stop offset="0.2225" stop-color="#4B27A7"/>
<stop offset="0.3154" stop-color="#521499"/>
<stop offset="0.4127" stop-color="#570A91"/>
<stop offset="0.5215" stop-color="#58068E"/>
<stop offset="0.6592" stop-color="#5B078F"/>
<stop offset="0.7607" stop-color="#640A92"/>
<stop offset="0.8506" stop-color="#740F98"/>
<stop offset="0.9332" stop-color="#8B17A0"/>
<stop offset="1" stop-color="#A31FA9"/>
</linearGradient>
<linearGradient id="paint3_linear_4_414" x1="584.826" y1="162.212" x2="337.55" y2="162.212" gradientUnits="userSpaceOnUse">
<stop stop-color="#7BDAFF"/>
<stop offset="1" stop-color="#59BDEF"/>
</linearGradient>
<linearGradient id="paint4_linear_4_414" x1="559.05" y1="284.223" x2="194.481" y2="284.223" gradientUnits="userSpaceOnUse">
<stop stop-color="#2C75E4"/>
<stop offset="0.0448" stop-color="#3461D5"/>
<stop offset="0.1323" stop-color="#4140BB"/>
<stop offset="0.2225" stop-color="#4B27A7"/>
<stop offset="0.3154" stop-color="#521499"/>
<stop offset="0.4127" stop-color="#570A91"/>
<stop offset="0.5215" stop-color="#58068E"/>
<stop offset="0.6592" stop-color="#5B078F"/>
<stop offset="0.7607" stop-color="#640A92"/>
<stop offset="0.8506" stop-color="#740F98"/>
<stop offset="0.9332" stop-color="#8B17A0"/>
<stop offset="1" stop-color="#A31FA9"/>
</linearGradient>
<radialGradient id="paint5_radial_4_414" cx="0" cy="0" r="1" gradientUnits="userSpaceOnUse" gradientTransform="translate(570.219 299.418) rotate(180) scale(387.063 338.643)">
<stop stop-color="#2979E4"/>
<stop offset="0.2449" stop-color="#4958CD"/>
<stop offset="0.5716" stop-color="#6E33B2"/>
<stop offset="0.8349" stop-color="#851BA1"/>
<stop offset="1" stop-color="#8D139B"/>
</radialGradient>
<linearGradient id="paint6_linear_4_414" x1="603.654" y1="205.305" x2="197.572" y2="205.305" gradientUnits="userSpaceOnUse">
<stop stop-color="#C0BFF6"/>
<stop offset="0.2938" stop-color="#C5C4F7"/>
<stop offset="0.6399" stop-color="#D3D2F9"/>
<stop offset="1" stop-color="#E9E9FD"/>
</linearGradient>
<radialGradient id="paint7_radial_4_414" cx="0" cy="0" r="1" gradientUnits="userSpaceOnUse" gradientTransform="translate(475.792 226.03) scale(75.657 66.1926)">
<stop stop-color="#22215B"/>
<stop offset="0.3261" stop-color="#1E1E55"/>
<stop offset="0.7509" stop-color="#141645"/>
<stop offset="1" stop-color="#0C0F38"/>
</radialGradient>
<radialGradient id="paint8_radial_4_414" cx="0" cy="0" r="1" gradientUnits="userSpaceOnUse" gradientTransform="translate(490.161 214.314) scale(72.0535 63.0399)">
<stop stop-color="#22215B"/>
<stop offset="0.3261" stop-color="#1E1E55"/>
<stop offset="0.7509" stop-color="#141645"/>
<stop offset="1" stop-color="#0C0F38"/>
</radialGradient>
<radialGradient id="paint9_radial_4_414" cx="0" cy="0" r="1" gradientUnits="userSpaceOnUse" gradientTransform="translate(516.168 215.561) scale(83.6789 73.211)">
<stop stop-color="#22215B"/>
<stop offset="0.3261" stop-color="#1E1E55"/>
<stop offset="0.7509" stop-color="#141645"/>
<stop offset="1" stop-color="#0C0F38"/>
</radialGradient>
<radialGradient id="paint10_radial_4_414" cx="0" cy="0" r="1" gradientUnits="userSpaceOnUse" gradientTransform="translate(527.937 209.616) scale(83.6789 73.211)">
<stop stop-color="#22215B"/>
<stop offset="0.3261" stop-color="#1E1E55"/>
<stop offset="0.7509" stop-color="#141645"/>
<stop offset="1" stop-color="#0C0F38"/>
</radialGradient>
<radialGradient id="paint11_radial_4_414" cx="0" cy="0" r="1" gradientUnits="userSpaceOnUse" gradientTransform="translate(539.705 203.672) scale(83.6789 73.211)">
<stop stop-color="#22215B"/>
<stop offset="0.3261" stop-color="#1E1E55"/>
<stop offset="0.7509" stop-color="#141645"/>
<stop offset="1" stop-color="#0C0F38"/>
</radialGradient>
<clipPath id="clip0_4_414">
<rect width="788" height="561" fill="white"/>
</clipPath>
</defs>
</svg>
